<?xml version="1.0" encoding="utf-8"?>
<!DOCTYPE svg PUBLIC "-//W3C//DTD SVG 1.1//EN" "http://www.w3.org/Graphics/SVG/1.1/DTD/svg11.dtd">
<svg xmlns="http://www.w3.org/2000/svg" xmlns:xlink="http://www.w3.org/1999/xlink" viewBox="0 0 505.15 97.24">
  <defs>
    <style>
      .cls-1 {
        clip-path: url(#clip-Artboard_1);
      }

      .cls-2 {
        fill: #ff7f00;
      }

      .cls-3 {
        fill: #535353;
      }
    </style>
    <clipPath id="clip-Artboard_1">
      <rect width="505.15" height="97.24"/>
    </clipPath>
  </defs>
  <g id="Artboard_1" data-name="Artboard – 1" class="cls-1">
    <g id="AlertLogic-logo" transform="translate(0.551 -206.35)">
      <g id="Group_5" data-name="Group 5" transform="translate(3.449 207.35)">
        <g id="Group_3" data-name="Group 3" transform="translate(94.5 30.053)">
          <g id="Group_2" data-name="Group 2">
            <path id="Path_1" data-name="Path 1" class="cls-2" d="M123,222.1l-16.9,34.8h6l4.4-9h17.4l4.5,9h6l-17.1-34.8H123Zm-4.1,20.5,6.2-12.5,6.2,12.5Zm39.4-20.5h-5.5v34.8h27.1v-5.3H158.3Zm35.4,19H207v-5.3H193.8v-8.4h21.9v-5.3H188.3v34.8H217v-5.3H193.8V241.1Zm58.7-.1a9.564,9.564,0,0,0,2.6-2.3,9.68,9.68,0,0,0,1.8-3.1,10.3,10.3,0,0,0,.6-3.5,9.551,9.551,0,0,0-.8-4.2,9.222,9.222,0,0,0-5.9-5.2,16.314,16.314,0,0,0-4.5-.6H226.5v34.8h5.6V242.3h11.7l8.3,14.6h6.1l-8.3-14.8A11.175,11.175,0,0,0,252.4,241Zm-6.4-4H232.2v-9.7h14.1a8.017,8.017,0,0,1,2.3.3,4.608,4.608,0,0,1,1.7.9,3.956,3.956,0,0,1,1,1.5,7.316,7.316,0,0,1,.3,2.2,6.648,6.648,0,0,1-.3,2.1,3.39,3.39,0,0,1-.9,1.4,5.559,5.559,0,0,1-1.7.9A8.031,8.031,0,0,1,246,237Zm19.1-14.9v5.3h13.8v29.5h5.7V227.4h13.9v-5.3H265.1Z" transform="translate(-106.1 -221.2)"/>
            <g id="Group_1" data-name="Group 1" transform="translate(216.4)">
              <path id="Path_2" data-name="Path 2" class="cls-3" d="M328.1,222.1h-5.6v34.8h27.1v-5.2H328.1Z" transform="translate(-322.5 -221.2)"/>
              <path id="Path_3" data-name="Path 3" class="cls-3" d="M387.4,226.6a16.59,16.59,0,0,0-5.7-3.9,17.472,17.472,0,0,0-7-1.3,16.981,16.981,0,0,0-12.8,5.2,16.665,16.665,0,0,0-3.8,5.8,19.942,19.942,0,0,0-1.3,7.1,20.92,20.92,0,0,0,1.2,7.2,16.171,16.171,0,0,0,3.8,5.9,15.435,15.435,0,0,0,5.7,3.8,20.683,20.683,0,0,0,7,1.3,19.805,19.805,0,0,0,7-1.3,17.484,17.484,0,0,0,5.7-3.7,20.112,20.112,0,0,0,2.3-2.8,19.122,19.122,0,0,0,1.6-3.2,16.893,16.893,0,0,0,.9-3.4,23.078,23.078,0,0,0,.3-3.7,18.31,18.31,0,0,0-1.3-7.1A14.085,14.085,0,0,0,387.4,226.6Zm-1.5,18.2a13.292,13.292,0,0,1-2.5,4.1,12.457,12.457,0,0,1-3.9,2.7,13.25,13.25,0,0,1-9.6,0,12.457,12.457,0,0,1-3.9-2.7,13.587,13.587,0,0,1-2.6-4.1,14.178,14.178,0,0,1-.9-5.2,12.915,12.915,0,0,1,3.5-9.1,12.438,12.438,0,0,1,13.5-2.8,10.538,10.538,0,0,1,3.9,2.7,13.292,13.292,0,0,1,2.5,4.1,13.465,13.465,0,0,1,.8,5A12.6,12.6,0,0,1,385.9,244.8Z" transform="translate(-322.5 -221.2)"/>
              <path id="Path_4" data-name="Path 4" class="cls-3" d="M419.7,237.7v5.2h9v4a9.8,9.8,0,0,1-2,2.4,9.58,9.58,0,0,1-2.4,1.7,9.868,9.868,0,0,1-2.7,1,13.23,13.23,0,0,1-7.9-.6,12.075,12.075,0,0,1-6.5-6.8,14.178,14.178,0,0,1-.9-5.2,14.4,14.4,0,0,1,.9-5.1,13.588,13.588,0,0,1,2.6-4.1,10.8,10.8,0,0,1,3.9-2.8,12.951,12.951,0,0,1,4.9-.9,11.766,11.766,0,0,1,6.1,1.6,12.958,12.958,0,0,1,4.9,5l4.3-3.1-.4-.6a16.381,16.381,0,0,0-2.9-3.5,18.312,18.312,0,0,0-3.6-2.6,19.217,19.217,0,0,0-4.2-1.6,22.973,22.973,0,0,0-4.5-.5,16.981,16.981,0,0,0-12.8,5.2,16.171,16.171,0,0,0-3.8,5.9,21.9,21.9,0,0,0,0,14.3,16.171,16.171,0,0,0,3.8,5.9,15.435,15.435,0,0,0,5.7,3.8,20.377,20.377,0,0,0,11.8.6,20.279,20.279,0,0,0,4.3-1.7,15.89,15.89,0,0,0,3.6-2.8,17.781,17.781,0,0,0,2.8-3.8V237.5h-14Z" transform="translate(-322.5 -221.2)"/>
              <rect id="Rectangle_1" data-name="Rectangle 1" class="cls-3" width="5.5" height="34.8" transform="translate(122.4 0.9)"/>
              <path id="Path_5" data-name="Path 5" class="cls-3" d="M489.7,244.7s-3.6,7.8-11.7,7.8a12.951,12.951,0,0,1-4.9-.9,12.457,12.457,0,0,1-3.9-2.7,13.587,13.587,0,0,1-2.6-4.1,14.178,14.178,0,0,1-.9-5.2,14.4,14.4,0,0,1,.9-5.1,13.588,13.588,0,0,1,2.6-4.1,11.721,11.721,0,0,1,3.9-2.8,12.592,12.592,0,0,1,4.9-.9c7.5,0,11.1,6.6,11.1,6.6l4.3-3.2-.4-.6a16.381,16.381,0,0,0-2.9-3.5,18.312,18.312,0,0,0-3.6-2.6,19.217,19.217,0,0,0-4.2-1.6,21.381,21.381,0,0,0-4.5-.5,16.981,16.981,0,0,0-12.8,5.2,16.171,16.171,0,0,0-3.8,5.9,21.069,21.069,0,0,0-.1,14.3,16.171,16.171,0,0,0,3.8,5.9,15.435,15.435,0,0,0,5.7,3.8,20.377,20.377,0,0,0,11.8.6,18.91,18.91,0,0,0,4.5-1.7,15.682,15.682,0,0,0,3.7-3,16.8,16.8,0,0,0,2.8-4l.3-.5Z" transform="translate(-322.5 -221.2)"/>
            </g>
          </g>
          <path id="Path_6" data-name="Path 6" class="cls-3" d="M503.8,221.3a4.8,4.8,0,1,0,4.8,4.8A4.867,4.867,0,0,0,503.8,221.3Zm0,8.7a3.8,3.8,0,1,1,3.8-3.8A3.8,3.8,0,0,1,503.8,230Zm1.4-3.5c.1-.1.3-.2.4-.3s.2-.3.3-.4a.9.9,0,0,0,.1-.5,1.268,1.268,0,0,0-.1-.6c-.1-.2-.2-.3-.3-.5a2.186,2.186,0,0,0-.5-.3,1.486,1.486,0,0,0-.6-.1h-2.7v4.7h1.1v-1.8h1.2l1,1.8h1.2l-1.1-1.9C505.1,226.5,505.1,226.5,505.2,226.5Zm-.8-.9h-1.7v-.9h1.7a.43.43,0,0,1,.4.4A.458.458,0,0,1,504.4,225.6Z" transform="translate(-106.1 -221.2)"/>
        </g>
        <g id="Group_4" data-name="Group 4">
          <path id="Path_7" data-name="Path 7" class="cls-3" d="M88.1,281.484c-4-9.347-38.6-54.211-32.1-40.043,14.2,30.6,7,34.14,10.4,50.669,1.6,7.969,10.1,12.5,16.8,9.937C89,299.882,92.7,292.208,88.1,281.484ZM58.8,227.864c5.2-6.1,3.5-15.545-2.6-19.087-5.3-3.148-13.5-1.476-18.2,8.953-1.1,2.46-3.7,10.724-6.3,19.972-2.1,5.706-6.8,16.726-10.5,22.432a8.625,8.625,0,0,0-.6.984C13,271.941,5.9,282.862,4.7,285.912c-2.9,7.477-.7,13.971,6,16.431,6.6,2.46,15.3-1.968,16.9-9.839.9-4.821.8-14.069,2.8-25.876,1.2-5.018,4.5-16.627,12.4-24.4C48.2,237.014,53,234.849,58.8,227.864Z" transform="translate(-3.449 -207.35)"/>
          <path id="Path_8" data-name="Path 8" class="cls-2" d="M59.8,268.9a12.1,12.1,0,1,1-12.1-12.1A12.078,12.078,0,0,1,59.8,268.9Z" transform="translate(-3.449 -208.412)"/>
        </g>
      </g>
    </g>
  </g>
</svg>
